<svg height="818.46997" viewBox="0 0 1083.41955 818.46997" width="1083.41955" xmlns="http://www.w3.org/2000/svg"><path d="m1083.42 652.95-343.98 135.81-75.26 29.71-162.79-56.75-138.93-48.43-11.54-4.02-16.91-42.84-67.24-170.31-33.75-85.5-10.15-25.7-7.34-18.6-16.36-41.44-26.49-67.09 57.86-22.84 55.26-21.82 39.72-15.68 500.11-197.45z" fill="#f2f2f2"/><g transform="translate(-58.29022 -40.76501)"><path d="m83.22992 477.02143a16.11455 16.11455 0 0 1 6.81947 31.49937c-8.69831 1.88314-31.75917-9.61217-31.75917-9.61217s16.24139-20.00406 24.9397-21.8872z" fill="#8cdbea"/><path d="m87.08023 807.87043a16.11455 16.11455 0 1 1 24.7679 20.622c-5.6946 6.83947-30.94374 11.98012-30.94374 11.98012s.48123-25.76265 6.17584-32.60212z" fill="#8cdbea"/><path d="m785.95542 283.20875c-25.9598-43.864-77.31917-45.90828-77.31917-45.90828s-50.04679-6.39993-82.15149 60.4055c-29.92415 62.26817-71.22327 122.38935-6.64883 136.96587l11.66407-36.30365 7.22347 39.00642a252.66409 252.66409 0 0 0 27.629.4722c69.154-2.23271 135.01277.65322 132.89222-24.16215-2.81897-32.98852 11.68931-88.26996-13.28927-130.47591z" fill="#2f2e41"/><path d="m679.40183 375.01247c8.94517 19.78693 14.5859 43.37287 17.9539 69.57137l71.81561-4.48847c-16.51071-23.39622-21.99282-50.25-15.70966-80.79257z" fill="#ffb8b8"/><path d="m679.40183 375.01247c8.94517 19.78693 14.5859 43.37287 17.9539 69.57137l71.81561-4.48847c-16.51071-23.39622-21.99282-50.25-15.70966-80.79257z" opacity=".2"/><path d="m346.19816 751.74815s-37.169 19.90939-18.30771 36.9075 43.77623-22.5 43.77623-22.5z" fill="#ffb8b8"/></g><path d="m742.3 652.93-.58 27.2-1.24 58.77-1.04 49.86-75.26 29.71-162.79-56.75 10.71-59.47 8.65-48.02 3.86-21.5 195.25-26.93z" fill="#2f2e41"/><path d="m800.59067 693.69425-.58352 27.20015c-69.07771-1.773-176.15021-18.44771-220.96758-25.8986l3.86-21.4997 195.24869-26.93085z" fill="#3f3d56" transform="translate(-58.29022 -40.76501)"/><circle cx="655.89729" cy="297.21753" fill="#ffb8b8" r="56.10595"/><g transform="translate(-58.29022 -40.76501)"><path d="m821.91093 723.99146s6.73271 60.59442-33.66357 56.10594l-6.73271-60.5944-35.90781-35.9078-100.9907-2.24424-74.05985 69.57137s-2.24424-71.81563 6.73271-78.54833 29.1751-22.44238 29.1751-22.44238v-11.2212l-60.59443-123.43308s35.90781-74.05985 65.0829-76.30409l38.152-2.24424s13.46543-6.73271 13.46543-8.977-2.24424-20.19814 8.977-15.70967c0 0 1.0098-23.0259 12.837-16.00142 0 0 37.2321 29.17509 75.025 1.27923 0 0 17.61721-3.23171 15.373 5.74524s0 15.70967 4.48847 15.70967 24.68653 6.73276 24.68653 11.22124c0 .965 1.45881 10.25618 3.7477 24.23774v.02246c8.32631 50.96656 27.67163 164.25578 27.67163 164.25578s20.19817 29.17509-13.4654 105.47918z" fill="#8cdbea"/><path d="m561.57934 504.05615-15.70967 11.22119-143.63122 184.0275-76.30409 60.59442s42.64052-6.73271 33.66357 29.17509l262.57583-150.36393z" fill="#8cdbea"/><path d="m807.70473 454.234v.02246c-2.98446 17.55-100.24993 13.89184-113.71536 13.89184s-24.68661-2.24424-38.152-11.22119-6.73272-20.19814-6.73272-20.19814 11.46535-8.73267 11.46535-10.97691-2.24424-20.19814 8.977-15.70967c0 0 1.0098-23.0259 12.837-16.00142 0 0 39.2321 31.17509 77.025 3.27923 0 0 17.61721-3.23171 15.373 5.74524s0 15.70967 4.48847 15.70967 24.68653 6.73271 24.68653 11.22119c0 .965 1.45884 10.25618 3.74773 24.2377z" fill="#3f3d56"/><path d="m796.10219 370.524s-17.9539-38.152-35.9078-20.19814 20.19814 44.88476 20.19814 44.88476z" fill="#ffb8b8"/><path d="m796.10219 361.547s-27.72375 35.03607-36.30425 37.71618c0 0 25.08307 99.18233 56.5024 126.11319l17.9539 92.01375s76.30409-31.41933 58.35018-83.0368q-.26931-.77427-.53592-1.53911a509.14 509.14 0 0 0 -61.513-121.25434z" fill="#8cdbea"/></g><path d="m722.997 424.697 55.211 151.928-20.198-92.014z" opacity=".2"/><path d="m716.188 238.215-50.741-26.578-70.07 10.873-14.497 64.03 36.088-1.388 10.082-23.524v23.136l16.651-.641 9.665-37.451 6.041 39.868 59.197-1.208z" fill="#2f2e41"/><g transform="translate(-58.29022 -40.76501)"><g fill="#2f2e41"><path d="m339.18549 779.221c-34.87989-19.44434-56.59375-45.99121-64.53907-78.90235-5.89941-24.43554-4.2041-51.93261 5.03809-81.72754a218.88861 218.88861 0 0 1 30.439-61.48437c70.63819-99.98633 77.01368-165.1377 69.92334-202.18652-7.77392-40.623-33.03125-57.49414-33.28564-57.65967l1.09033-1.67676c.26074.16943 26.18359 17.43262 34.14453 58.87988 4.58936 23.89453 2.43018 51.14063-6.41748 80.981-11.01172 37.1377-32.48437 78.459-63.82129 122.81641a216.90415 216.90415 0 0 0 -30.1626 60.92187c-15.1582 48.86719-17.30273 115.99707 58.56446 158.292z"/><path d="m275.48138 594.07935c-27.498-15.32813-26.73242-39.6211-21.248-57.30079a77.6873 77.6873 0 0 1 10.8042-21.82519c24.74658-35.02832 26.98291-57.7832 24.50146-70.7041-2.69531-14.03076-11.34131-19.791-11.42822-19.84766l1.08984-1.67676c.38428.24952 9.44824 6.28858 12.30225 21.14746 3.71631 19.34815-4.63819 43.65137-24.83154 72.23536a75.6768 75.6768 0 0 0 -10.52784 21.26269c-5.26513 16.97363-6.01513 40.28711 20.31153 54.96289z"/><path d="m399.19818 372.08032-.97363-1.74707c26.32666-14.67627 25.57666-37.98974 20.31152-54.9624a75.67919 75.67919 0 0 0 -10.52783-21.26318c-20.19336-28.5835-28.54785-52.88721-24.83154-72.23536 2.854-14.85888 11.918-20.89794 12.30224-21.14746l1.09131 1.67578c-.0874.05762-8.77734 5.89356-11.44482 19.92774-2.4541 12.91357-.19336 35.64892 24.5166 70.625a77.69731 77.69731 0 0 1 10.8042 21.82471c5.48437 17.67968 6.25 41.97265-21.24805 57.30224z"/></g><path d="m457.90857 272.5774a30 30 0 1 1 -50.25128-32.78427c9.05312-13.87651 54.63148-28.834 54.63148-28.834s4.67293 47.74176-4.3802 61.61827z" fill="#8cdbea"/><path d="m446.90857 179.5774a30 30 0 1 1 -50.25128-32.78427c9.05312-13.87651 54.63148-28.834 54.63148-28.834s4.67293 47.74176-4.3802 61.61827z" fill="#8cdbea"/><path d="m398.55511 520.29419a30.99912 30.99912 0 0 1 -13.38086-58.98535c15.1001-7.19531 60.39063 3.33789 62.312 3.78955l1.21435.28613-.543 1.123c-.85937 1.77588-21.21777 43.58056-36.31933 50.7749a30.81212 30.81212 0 0 1 -13.28316 3.01177zm2.52247-59.49072c-6.14258 0-11.5254.63525-15.043 2.311a29.00036 29.00036 0 0 0 24.94342 52.36331c13.1372-6.25879 31.40869-41.87744 34.82031-48.71093-5.45902-1.21241-27.92431-5.96338-44.72073-5.96338z" fill="#2f2e41"/><path d="m337.42027 245.0522a30 30 0 1 1 -40.42649 44.33621c-12.24311-11.16347-19.68934-58.552-19.68934-58.552s47.87272 3.05233 60.11583 14.21579z" fill="#8cdbea"/><path d="m267.42027 371.0522a30 30 0 1 1 -40.42649 44.33621c-12.24311-11.16347-19.68934-58.552-19.68934-58.552s47.87272 3.05233 60.11583 14.21579z" fill="#8cdbea"/><path d="m345.88275 388.72339c-10.01318 0-29.16016-9.48193-30.03857-9.91992l-1.1167-.55664.78662-.96875c.67236-.82764 16.56543-20.29883 25.50439-22.23438a17.11475 17.11475 0 0 1 7.24219 33.45459 11.349 11.349 0 0 1 -2.37793.2251zm-28.00684-11.1582c4.71583 2.251 22.77686 10.53515 29.96192 8.978a15.11447 15.11447 0 0 0 -6.39649-29.54443c-7.1875 1.55617-20.20312 16.56691-23.56543 20.56643z" fill="#2f2e41"/><path d="m238.48965 795.58871a16.11456 16.11456 0 0 1 28.0494 15.87283c-4.38316 7.74563-28.31025 17.308-28.31025 17.308s-4.12231-25.4352.26085-33.18083z" fill="#8cdbea"/><path d="m186.14838 624.0022a147.9621 147.9621 0 0 1 -20.60743-1.77637l-1.23193-.2002.46387-1.1582c.396-.99023 9.793-24.30176 17.75488-28.80273a17.11425 17.11425 0 1 1 16.84623 29.7959c-2.86039 1.61718-7.8975 2.1416-13.22562 2.1416zm-19.03516-3.5625c5.1709.749 24.87549 3.29785 31.27637-.31934a15.11489 15.11489 0 0 0 -14.87744-26.31543c-6.39991 3.61817-14.375 21.81738-16.39893 26.63477z" fill="#2f2e41"/></g></svg>